<?xml version="1.0" encoding="utf-8" standalone="no"?>
<!DOCTYPE svg PUBLIC "-//W3C//DTD SVG 1.1//EN"
  "http://www.w3.org/Graphics/SVG/1.1/DTD/svg11.dtd">
<svg xmlns:xlink="http://www.w3.org/1999/xlink" width="1138.23125pt" height="411.870625pt" viewBox="0 0 1138.23125 411.870625" xmlns="http://www.w3.org/2000/svg" version="1.1">
 <metadata>
  <rdf:RDF xmlns:dc="http://purl.org/dc/elements/1.1/" xmlns:cc="http://creativecommons.org/ns#" xmlns:rdf="http://www.w3.org/1999/02/22-rdf-syntax-ns#">
   <cc:Work>
    <dc:type rdf:resource="http://purl.org/dc/dcmitype/StillImage"/>
    <dc:date>2023-02-19T10:59:14.432281</dc:date>
    <dc:format>image/svg+xml</dc:format>
    <dc:creator>
     <cc:Agent>
      <dc:title>Matplotlib v3.6.3, https://matplotlib.org/</dc:title>
     </cc:Agent>
    </dc:creator>
   </cc:Work>
  </rdf:RDF>
 </metadata>
 <defs>
  <style type="text/css">*{stroke-linejoin: round; stroke-linecap: butt}</style>
 </defs>
 <g id="figure_1">
  <g id="patch_1">
   <path d="M 0 411.870625 
L 1138.23125 411.870625 
L 1138.23125 0 
L 0 0 
z
" style="fill: #ffffff"/>
  </g>
  <g id="axes_1">
   <g id="patch_2">
    <path d="M 126.63125 354.958125 
L 1131.03125 354.958125 
L 1131.03125 22.318125 
L 126.63125 22.318125 
z
" style="fill: #ffffff"/>
   </g>
   <g id="matplotlib.axis_1">
    <g id="xtick_1">
     <g id="line2d_1">
      <defs>
       <path id="mef3e63560f" d="M 0 0 
L 0 3.5 
" style="stroke: #000000; stroke-width: 0.8"/>
      </defs>
      <g>
       <use xlink:href="#mef3e63560f" x="172.285795" y="354.958125" style="stroke: #000000; stroke-width: 0.8"/>
      </g>
     </g>
     <g id="text_1">
      <!-- 0 -->
      <g transform="translate(165.923295 377.155) scale(0.2 -0.2)">
       <defs>
        <path id="DejaVuSans-30" d="M 2034 4250 
Q 1547 4250 1301 3770 
Q 1056 3291 1056 2328 
Q 1056 1369 1301 889 
Q 1547 409 2034 409 
Q 2525 409 2770 889 
Q 3016 1369 3016 2328 
Q 3016 3291 2770 3770 
Q 2525 4250 2034 4250 
z
M 2034 4750 
Q 2819 4750 3233 4129 
Q 3647 3509 3647 2328 
Q 3647 1150 3233 529 
Q 2819 -91 2034 -91 
Q 1250 -91 836 529 
Q 422 1150 422 2328 
Q 422 3509 836 4129 
Q 1250 4750 2034 4750 
z
" transform="scale(0.015625)"/>
       </defs>
       <use xlink:href="#DejaVuSans-30"/>
      </g>
     </g>
    </g>
    <g id="xtick_2">
     <g id="line2d_2">
      <g>
       <use xlink:href="#mef3e63560f" x="317.22086" y="354.958125" style="stroke: #000000; stroke-width: 0.8"/>
      </g>
     </g>
     <g id="text_2">
      <!-- 10 -->
      <g transform="translate(304.49586 377.155) scale(0.2 -0.2)">
       <defs>
        <path id="DejaVuSans-31" d="M 794 531 
L 1825 531 
L 1825 4091 
L 703 3866 
L 703 4441 
L 1819 4666 
L 2450 4666 
L 2450 531 
L 3481 531 
L 3481 0 
L 794 0 
L 794 531 
z
" transform="scale(0.015625)"/>
       </defs>
       <use xlink:href="#DejaVuSans-31"/>
       <use xlink:href="#DejaVuSans-30" x="63.623047"/>
      </g>
     </g>
    </g>
    <g id="xtick_3">
     <g id="line2d_3">
      <g>
       <use xlink:href="#mef3e63560f" x="462.155925" y="354.958125" style="stroke: #000000; stroke-width: 0.8"/>
      </g>
     </g>
     <g id="text_3">
      <!-- 20 -->
      <g transform="translate(449.430925 377.155) scale(0.2 -0.2)">
       <defs>
        <path id="DejaVuSans-32" d="M 1228 531 
L 3431 531 
L 3431 0 
L 469 0 
L 469 531 
Q 828 903 1448 1529 
Q 2069 2156 2228 2338 
Q 2531 2678 2651 2914 
Q 2772 3150 2772 3378 
Q 2772 3750 2511 3984 
Q 2250 4219 1831 4219 
Q 1534 4219 1204 4116 
Q 875 4013 500 3803 
L 500 4441 
Q 881 4594 1212 4672 
Q 1544 4750 1819 4750 
Q 2544 4750 2975 4387 
Q 3406 4025 3406 3419 
Q 3406 3131 3298 2873 
Q 3191 2616 2906 2266 
Q 2828 2175 2409 1742 
Q 1991 1309 1228 531 
z
" transform="scale(0.015625)"/>
       </defs>
       <use xlink:href="#DejaVuSans-32"/>
       <use xlink:href="#DejaVuSans-30" x="63.623047"/>
      </g>
     </g>
    </g>
    <g id="xtick_4">
     <g id="line2d_4">
      <g>
       <use xlink:href="#mef3e63560f" x="607.09099" y="354.958125" style="stroke: #000000; stroke-width: 0.8"/>
      </g>
     </g>
     <g id="text_4">
      <!-- 30 -->
      <g transform="translate(594.36599 377.155) scale(0.2 -0.2)">
       <defs>
        <path id="DejaVuSans-33" d="M 2597 2516 
Q 3050 2419 3304 2112 
Q 3559 1806 3559 1356 
Q 3559 666 3084 287 
Q 2609 -91 1734 -91 
Q 1441 -91 1130 -33 
Q 819 25 488 141 
L 488 750 
Q 750 597 1062 519 
Q 1375 441 1716 441 
Q 2309 441 2620 675 
Q 2931 909 2931 1356 
Q 2931 1769 2642 2001 
Q 2353 2234 1838 2234 
L 1294 2234 
L 1294 2753 
L 1863 2753 
Q 2328 2753 2575 2939 
Q 2822 3125 2822 3475 
Q 2822 3834 2567 4026 
Q 2313 4219 1838 4219 
Q 1578 4219 1281 4162 
Q 984 4106 628 3988 
L 628 4550 
Q 988 4650 1302 4700 
Q 1616 4750 1894 4750 
Q 2613 4750 3031 4423 
Q 3450 4097 3450 3541 
Q 3450 3153 3228 2886 
Q 3006 2619 2597 2516 
z
" transform="scale(0.015625)"/>
       </defs>
       <use xlink:href="#DejaVuSans-33"/>
       <use xlink:href="#DejaVuSans-30" x="63.623047"/>
      </g>
     </g>
    </g>
    <g id="xtick_5">
     <g id="line2d_5">
      <g>
       <use xlink:href="#mef3e63560f" x="752.026055" y="354.958125" style="stroke: #000000; stroke-width: 0.8"/>
      </g>
     </g>
     <g id="text_5">
      <!-- 40 -->
      <g transform="translate(739.301055 377.155) scale(0.2 -0.2)">
       <defs>
        <path id="DejaVuSans-34" d="M 2419 4116 
L 825 1625 
L 2419 1625 
L 2419 4116 
z
M 2253 4666 
L 3047 4666 
L 3047 1625 
L 3713 1625 
L 3713 1100 
L 3047 1100 
L 3047 0 
L 2419 0 
L 2419 1100 
L 313 1100 
L 313 1709 
L 2253 4666 
z
" transform="scale(0.015625)"/>
       </defs>
       <use xlink:href="#DejaVuSans-34"/>
       <use xlink:href="#DejaVuSans-30" x="63.623047"/>
      </g>
     </g>
    </g>
    <g id="xtick_6">
     <g id="line2d_6">
      <g>
       <use xlink:href="#mef3e63560f" x="896.96112" y="354.958125" style="stroke: #000000; stroke-width: 0.8"/>
      </g>
     </g>
     <g id="text_6">
      <!-- 50 -->
      <g transform="translate(884.23612 377.155) scale(0.2 -0.2)">
       <defs>
        <path id="DejaVuSans-35" d="M 691 4666 
L 3169 4666 
L 3169 4134 
L 1269 4134 
L 1269 2991 
Q 1406 3038 1543 3061 
Q 1681 3084 1819 3084 
Q 2600 3084 3056 2656 
Q 3513 2228 3513 1497 
Q 3513 744 3044 326 
Q 2575 -91 1722 -91 
Q 1428 -91 1123 -41 
Q 819 9 494 109 
L 494 744 
Q 775 591 1075 516 
Q 1375 441 1709 441 
Q 2250 441 2565 725 
Q 2881 1009 2881 1497 
Q 2881 1984 2565 2268 
Q 2250 2553 1709 2553 
Q 1456 2553 1204 2497 
Q 953 2441 691 2322 
L 691 4666 
z
" transform="scale(0.015625)"/>
       </defs>
       <use xlink:href="#DejaVuSans-35"/>
       <use xlink:href="#DejaVuSans-30" x="63.623047"/>
      </g>
     </g>
    </g>
    <g id="xtick_7">
     <g id="line2d_7">
      <g>
       <use xlink:href="#mef3e63560f" x="1041.896185" y="354.958125" style="stroke: #000000; stroke-width: 0.8"/>
      </g>
     </g>
     <g id="text_7">
      <!-- 60 -->
      <g transform="translate(1029.171185 377.155) scale(0.2 -0.2)">
       <defs>
        <path id="DejaVuSans-36" d="M 2113 2584 
Q 1688 2584 1439 2293 
Q 1191 2003 1191 1497 
Q 1191 994 1439 701 
Q 1688 409 2113 409 
Q 2538 409 2786 701 
Q 3034 994 3034 1497 
Q 3034 2003 2786 2293 
Q 2538 2584 2113 2584 
z
M 3366 4563 
L 3366 3988 
Q 3128 4100 2886 4159 
Q 2644 4219 2406 4219 
Q 1781 4219 1451 3797 
Q 1122 3375 1075 2522 
Q 1259 2794 1537 2939 
Q 1816 3084 2150 3084 
Q 2853 3084 3261 2657 
Q 3669 2231 3669 1497 
Q 3669 778 3244 343 
Q 2819 -91 2113 -91 
Q 1303 -91 875 529 
Q 447 1150 447 2328 
Q 447 3434 972 4092 
Q 1497 4750 2381 4750 
Q 2619 4750 2861 4703 
Q 3103 4656 3366 4563 
z
" transform="scale(0.015625)"/>
       </defs>
       <use xlink:href="#DejaVuSans-36"/>
       <use xlink:href="#DejaVuSans-30" x="63.623047"/>
      </g>
     </g>
    </g>
    <g id="text_8">
     <!-- Index of thread (sorted by time of first task) -->
     <g transform="translate(408.710937 400.51125) scale(0.2 -0.2)">
      <defs>
       <path id="DejaVuSans-49" d="M 628 4666 
L 1259 4666 
L 1259 0 
L 628 0 
L 628 4666 
z
" transform="scale(0.015625)"/>
       <path id="DejaVuSans-6e" d="M 3513 2113 
L 3513 0 
L 2938 0 
L 2938 2094 
Q 2938 2591 2744 2837 
Q 2550 3084 2163 3084 
Q 1697 3084 1428 2787 
Q 1159 2491 1159 1978 
L 1159 0 
L 581 0 
L 581 3500 
L 1159 3500 
L 1159 2956 
Q 1366 3272 1645 3428 
Q 1925 3584 2291 3584 
Q 2894 3584 3203 3211 
Q 3513 2838 3513 2113 
z
" transform="scale(0.015625)"/>
       <path id="DejaVuSans-64" d="M 2906 2969 
L 2906 4863 
L 3481 4863 
L 3481 0 
L 2906 0 
L 2906 525 
Q 2725 213 2448 61 
Q 2172 -91 1784 -91 
Q 1150 -91 751 415 
Q 353 922 353 1747 
Q 353 2572 751 3078 
Q 1150 3584 1784 3584 
Q 2172 3584 2448 3432 
Q 2725 3281 2906 2969 
z
M 947 1747 
Q 947 1113 1208 752 
Q 1469 391 1925 391 
Q 2381 391 2643 752 
Q 2906 1113 2906 1747 
Q 2906 2381 2643 2742 
Q 2381 3103 1925 3103 
Q 1469 3103 1208 2742 
Q 947 2381 947 1747 
z
" transform="scale(0.015625)"/>
       <path id="DejaVuSans-65" d="M 3597 1894 
L 3597 1613 
L 953 1613 
Q 991 1019 1311 708 
Q 1631 397 2203 397 
Q 2534 397 2845 478 
Q 3156 559 3463 722 
L 3463 178 
Q 3153 47 2828 -22 
Q 2503 -91 2169 -91 
Q 1331 -91 842 396 
Q 353 884 353 1716 
Q 353 2575 817 3079 
Q 1281 3584 2069 3584 
Q 2775 3584 3186 3129 
Q 3597 2675 3597 1894 
z
M 3022 2063 
Q 3016 2534 2758 2815 
Q 2500 3097 2075 3097 
Q 1594 3097 1305 2825 
Q 1016 2553 972 2059 
L 3022 2063 
z
" transform="scale(0.015625)"/>
       <path id="DejaVuSans-78" d="M 3513 3500 
L 2247 1797 
L 3578 0 
L 2900 0 
L 1881 1375 
L 863 0 
L 184 0 
L 1544 1831 
L 300 3500 
L 978 3500 
L 1906 2253 
L 2834 3500 
L 3513 3500 
z
" transform="scale(0.015625)"/>
       <path id="DejaVuSans-20" transform="scale(0.015625)"/>
       <path id="DejaVuSans-6f" d="M 1959 3097 
Q 1497 3097 1228 2736 
Q 959 2375 959 1747 
Q 959 1119 1226 758 
Q 1494 397 1959 397 
Q 2419 397 2687 759 
Q 2956 1122 2956 1747 
Q 2956 2369 2687 2733 
Q 2419 3097 1959 3097 
z
M 1959 3584 
Q 2709 3584 3137 3096 
Q 3566 2609 3566 1747 
Q 3566 888 3137 398 
Q 2709 -91 1959 -91 
Q 1206 -91 779 398 
Q 353 888 353 1747 
Q 353 2609 779 3096 
Q 1206 3584 1959 3584 
z
" transform="scale(0.015625)"/>
       <path id="DejaVuSans-66" d="M 2375 4863 
L 2375 4384 
L 1825 4384 
Q 1516 4384 1395 4259 
Q 1275 4134 1275 3809 
L 1275 3500 
L 2222 3500 
L 2222 3053 
L 1275 3053 
L 1275 0 
L 697 0 
L 697 3053 
L 147 3053 
L 147 3500 
L 697 3500 
L 697 3744 
Q 697 4328 969 4595 
Q 1241 4863 1831 4863 
L 2375 4863 
z
" transform="scale(0.015625)"/>
       <path id="DejaVuSans-74" d="M 1172 4494 
L 1172 3500 
L 2356 3500 
L 2356 3053 
L 1172 3053 
L 1172 1153 
Q 1172 725 1289 603 
Q 1406 481 1766 481 
L 2356 481 
L 2356 0 
L 1766 0 
Q 1100 0 847 248 
Q 594 497 594 1153 
L 594 3053 
L 172 3053 
L 172 3500 
L 594 3500 
L 594 4494 
L 1172 4494 
z
" transform="scale(0.015625)"/>
       <path id="DejaVuSans-68" d="M 3513 2113 
L 3513 0 
L 2938 0 
L 2938 2094 
Q 2938 2591 2744 2837 
Q 2550 3084 2163 3084 
Q 1697 3084 1428 2787 
Q 1159 2491 1159 1978 
L 1159 0 
L 581 0 
L 581 4863 
L 1159 4863 
L 1159 2956 
Q 1366 3272 1645 3428 
Q 1925 3584 2291 3584 
Q 2894 3584 3203 3211 
Q 3513 2838 3513 2113 
z
" transform="scale(0.015625)"/>
       <path id="DejaVuSans-72" d="M 2631 2963 
Q 2534 3019 2420 3045 
Q 2306 3072 2169 3072 
Q 1681 3072 1420 2755 
Q 1159 2438 1159 1844 
L 1159 0 
L 581 0 
L 581 3500 
L 1159 3500 
L 1159 2956 
Q 1341 3275 1631 3429 
Q 1922 3584 2338 3584 
Q 2397 3584 2469 3576 
Q 2541 3569 2628 3553 
L 2631 2963 
z
" transform="scale(0.015625)"/>
       <path id="DejaVuSans-61" d="M 2194 1759 
Q 1497 1759 1228 1600 
Q 959 1441 959 1056 
Q 959 750 1161 570 
Q 1363 391 1709 391 
Q 2188 391 2477 730 
Q 2766 1069 2766 1631 
L 2766 1759 
L 2194 1759 
z
M 3341 1997 
L 3341 0 
L 2766 0 
L 2766 531 
Q 2569 213 2275 61 
Q 1981 -91 1556 -91 
Q 1019 -91 701 211 
Q 384 513 384 1019 
Q 384 1609 779 1909 
Q 1175 2209 1959 2209 
L 2766 2209 
L 2766 2266 
Q 2766 2663 2505 2880 
Q 2244 3097 1772 3097 
Q 1472 3097 1187 3025 
Q 903 2953 641 2809 
L 641 3341 
Q 956 3463 1253 3523 
Q 1550 3584 1831 3584 
Q 2591 3584 2966 3190 
Q 3341 2797 3341 1997 
z
" transform="scale(0.015625)"/>
       <path id="DejaVuSans-28" d="M 1984 4856 
Q 1566 4138 1362 3434 
Q 1159 2731 1159 2009 
Q 1159 1288 1364 580 
Q 1569 -128 1984 -844 
L 1484 -844 
Q 1016 -109 783 600 
Q 550 1309 550 2009 
Q 550 2706 781 3412 
Q 1013 4119 1484 4856 
L 1984 4856 
z
" transform="scale(0.015625)"/>
       <path id="DejaVuSans-73" d="M 2834 3397 
L 2834 2853 
Q 2591 2978 2328 3040 
Q 2066 3103 1784 3103 
Q 1356 3103 1142 2972 
Q 928 2841 928 2578 
Q 928 2378 1081 2264 
Q 1234 2150 1697 2047 
L 1894 2003 
Q 2506 1872 2764 1633 
Q 3022 1394 3022 966 
Q 3022 478 2636 193 
Q 2250 -91 1575 -91 
Q 1294 -91 989 -36 
Q 684 19 347 128 
L 347 722 
Q 666 556 975 473 
Q 1284 391 1588 391 
Q 1994 391 2212 530 
Q 2431 669 2431 922 
Q 2431 1156 2273 1281 
Q 2116 1406 1581 1522 
L 1381 1569 
Q 847 1681 609 1914 
Q 372 2147 372 2553 
Q 372 3047 722 3315 
Q 1072 3584 1716 3584 
Q 2034 3584 2315 3537 
Q 2597 3491 2834 3397 
z
" transform="scale(0.015625)"/>
       <path id="DejaVuSans-62" d="M 3116 1747 
Q 3116 2381 2855 2742 
Q 2594 3103 2138 3103 
Q 1681 3103 1420 2742 
Q 1159 2381 1159 1747 
Q 1159 1113 1420 752 
Q 1681 391 2138 391 
Q 2594 391 2855 752 
Q 3116 1113 3116 1747 
z
M 1159 2969 
Q 1341 3281 1617 3432 
Q 1894 3584 2278 3584 
Q 2916 3584 3314 3078 
Q 3713 2572 3713 1747 
Q 3713 922 3314 415 
Q 2916 -91 2278 -91 
Q 1894 -91 1617 61 
Q 1341 213 1159 525 
L 1159 0 
L 581 0 
L 581 4863 
L 1159 4863 
L 1159 2969 
z
" transform="scale(0.015625)"/>
       <path id="DejaVuSans-79" d="M 2059 -325 
Q 1816 -950 1584 -1140 
Q 1353 -1331 966 -1331 
L 506 -1331 
L 506 -850 
L 844 -850 
Q 1081 -850 1212 -737 
Q 1344 -625 1503 -206 
L 1606 56 
L 191 3500 
L 800 3500 
L 1894 763 
L 2988 3500 
L 3597 3500 
L 2059 -325 
z
" transform="scale(0.015625)"/>
       <path id="DejaVuSans-69" d="M 603 3500 
L 1178 3500 
L 1178 0 
L 603 0 
L 603 3500 
z
M 603 4863 
L 1178 4863 
L 1178 4134 
L 603 4134 
L 603 4863 
z
" transform="scale(0.015625)"/>
       <path id="DejaVuSans-6d" d="M 3328 2828 
Q 3544 3216 3844 3400 
Q 4144 3584 4550 3584 
Q 5097 3584 5394 3201 
Q 5691 2819 5691 2113 
L 5691 0 
L 5113 0 
L 5113 2094 
Q 5113 2597 4934 2840 
Q 4756 3084 4391 3084 
Q 3944 3084 3684 2787 
Q 3425 2491 3425 1978 
L 3425 0 
L 2847 0 
L 2847 2094 
Q 2847 2600 2669 2842 
Q 2491 3084 2119 3084 
Q 1678 3084 1418 2786 
Q 1159 2488 1159 1978 
L 1159 0 
L 581 0 
L 581 3500 
L 1159 3500 
L 1159 2956 
Q 1356 3278 1631 3431 
Q 1906 3584 2284 3584 
Q 2666 3584 2933 3390 
Q 3200 3197 3328 2828 
z
" transform="scale(0.015625)"/>
       <path id="DejaVuSans-6b" d="M 581 4863 
L 1159 4863 
L 1159 1991 
L 2875 3500 
L 3609 3500 
L 1753 1863 
L 3688 0 
L 2938 0 
L 1159 1709 
L 1159 0 
L 581 0 
L 581 4863 
z
" transform="scale(0.015625)"/>
       <path id="DejaVuSans-29" d="M 513 4856 
L 1013 4856 
Q 1481 4119 1714 3412 
Q 1947 2706 1947 2009 
Q 1947 1309 1714 600 
Q 1481 -109 1013 -844 
L 513 -844 
Q 928 -128 1133 580 
Q 1338 1288 1338 2009 
Q 1338 2731 1133 3434 
Q 928 4138 513 4856 
z
" transform="scale(0.015625)"/>
      </defs>
      <use xlink:href="#DejaVuSans-49"/>
      <use xlink:href="#DejaVuSans-6e" x="29.492188"/>
      <use xlink:href="#DejaVuSans-64" x="92.871094"/>
      <use xlink:href="#DejaVuSans-65" x="156.347656"/>
      <use xlink:href="#DejaVuSans-78" x="216.121094"/>
      <use xlink:href="#DejaVuSans-20" x="275.300781"/>
      <use xlink:href="#DejaVuSans-6f" x="307.087891"/>
      <use xlink:href="#DejaVuSans-66" x="368.269531"/>
      <use xlink:href="#DejaVuSans-20" x="403.474609"/>
      <use xlink:href="#DejaVuSans-74" x="435.261719"/>
      <use xlink:href="#DejaVuSans-68" x="474.470703"/>
      <use xlink:href="#DejaVuSans-72" x="537.849609"/>
      <use xlink:href="#DejaVuSans-65" x="576.712891"/>
      <use xlink:href="#DejaVuSans-61" x="638.236328"/>
      <use xlink:href="#DejaVuSans-64" x="699.515625"/>
      <use xlink:href="#DejaVuSans-20" x="762.992188"/>
      <use xlink:href="#DejaVuSans-28" x="794.779297"/>
      <use xlink:href="#DejaVuSans-73" x="833.792969"/>
      <use xlink:href="#DejaVuSans-6f" x="885.892578"/>
      <use xlink:href="#DejaVuSans-72" x="947.074219"/>
      <use xlink:href="#DejaVuSans-74" x="988.1875"/>
      <use xlink:href="#DejaVuSans-65" x="1027.396484"/>
      <use xlink:href="#DejaVuSans-64" x="1088.919922"/>
      <use xlink:href="#DejaVuSans-20" x="1152.396484"/>
      <use xlink:href="#DejaVuSans-62" x="1184.183594"/>
      <use xlink:href="#DejaVuSans-79" x="1247.660156"/>
      <use xlink:href="#DejaVuSans-20" x="1306.839844"/>
      <use xlink:href="#DejaVuSans-74" x="1338.626953"/>
      <use xlink:href="#DejaVuSans-69" x="1377.835938"/>
      <use xlink:href="#DejaVuSans-6d" x="1405.619141"/>
      <use xlink:href="#DejaVuSans-65" x="1503.03125"/>
      <use xlink:href="#DejaVuSans-20" x="1564.554688"/>
      <use xlink:href="#DejaVuSans-6f" x="1596.341797"/>
      <use xlink:href="#DejaVuSans-66" x="1657.523438"/>
      <use xlink:href="#DejaVuSans-20" x="1692.728516"/>
      <use xlink:href="#DejaVuSans-66" x="1724.515625"/>
      <use xlink:href="#DejaVuSans-69" x="1759.720703"/>
      <use xlink:href="#DejaVuSans-72" x="1787.503906"/>
      <use xlink:href="#DejaVuSans-73" x="1828.617188"/>
      <use xlink:href="#DejaVuSans-74" x="1880.716797"/>
      <use xlink:href="#DejaVuSans-20" x="1919.925781"/>
      <use xlink:href="#DejaVuSans-74" x="1951.712891"/>
      <use xlink:href="#DejaVuSans-61" x="1990.921875"/>
      <use xlink:href="#DejaVuSans-73" x="2052.201172"/>
      <use xlink:href="#DejaVuSans-6b" x="2104.300781"/>
      <use xlink:href="#DejaVuSans-29" x="2162.210938"/>
     </g>
    </g>
   </g>
   <g id="matplotlib.axis_2">
    <g id="ytick_1">
     <g id="line2d_8">
      <defs>
       <path id="m4710a15c5d" d="M 0 0 
L -3.5 0 
" style="stroke: #000000; stroke-width: 0.8"/>
      </defs>
      <g>
       <use xlink:href="#m4710a15c5d" x="126.63125" y="354.958125" style="stroke: #000000; stroke-width: 0.8"/>
      </g>
     </g>
     <g id="text_9">
      <!-- 0 -->
      <g transform="translate(106.90625 362.556563) scale(0.2 -0.2)">
       <use xlink:href="#DejaVuSans-30"/>
      </g>
     </g>
    </g>
    <g id="ytick_2">
     <g id="line2d_9">
      <g>
       <use xlink:href="#m4710a15c5d" x="126.63125" y="300.002921" style="stroke: #000000; stroke-width: 0.8"/>
      </g>
     </g>
     <g id="text_10">
      <!-- 200000 -->
      <g transform="translate(43.28125 307.601359) scale(0.2 -0.2)">
       <use xlink:href="#DejaVuSans-32"/>
       <use xlink:href="#DejaVuSans-30" x="63.623047"/>
       <use xlink:href="#DejaVuSans-30" x="127.246094"/>
       <use xlink:href="#DejaVuSans-30" x="190.869141"/>
       <use xlink:href="#DejaVuSans-30" x="254.492188"/>
       <use xlink:href="#DejaVuSans-30" x="318.115234"/>
      </g>
     </g>
    </g>
    <g id="ytick_3">
     <g id="line2d_10">
      <g>
       <use xlink:href="#m4710a15c5d" x="126.63125" y="245.047718" style="stroke: #000000; stroke-width: 0.8"/>
      </g>
     </g>
     <g id="text_11">
      <!-- 400000 -->
      <g transform="translate(43.28125 252.646155) scale(0.2 -0.2)">
       <use xlink:href="#DejaVuSans-34"/>
       <use xlink:href="#DejaVuSans-30" x="63.623047"/>
       <use xlink:href="#DejaVuSans-30" x="127.246094"/>
       <use xlink:href="#DejaVuSans-30" x="190.869141"/>
       <use xlink:href="#DejaVuSans-30" x="254.492188"/>
       <use xlink:href="#DejaVuSans-30" x="318.115234"/>
      </g>
     </g>
    </g>
    <g id="ytick_4">
     <g id="line2d_11">
      <g>
       <use xlink:href="#m4710a15c5d" x="126.63125" y="190.092514" style="stroke: #000000; stroke-width: 0.8"/>
      </g>
     </g>
     <g id="text_12">
      <!-- 600000 -->
      <g transform="translate(43.28125 197.690952) scale(0.2 -0.2)">
       <use xlink:href="#DejaVuSans-36"/>
       <use xlink:href="#DejaVuSans-30" x="63.623047"/>
       <use xlink:href="#DejaVuSans-30" x="127.246094"/>
       <use xlink:href="#DejaVuSans-30" x="190.869141"/>
       <use xlink:href="#DejaVuSans-30" x="254.492188"/>
       <use xlink:href="#DejaVuSans-30" x="318.115234"/>
      </g>
     </g>
    </g>
    <g id="ytick_5">
     <g id="line2d_12">
      <g>
       <use xlink:href="#m4710a15c5d" x="126.63125" y="135.137311" style="stroke: #000000; stroke-width: 0.8"/>
      </g>
     </g>
     <g id="text_13">
      <!-- 800000 -->
      <g transform="translate(43.28125 142.735748) scale(0.2 -0.2)">
       <defs>
        <path id="DejaVuSans-38" d="M 2034 2216 
Q 1584 2216 1326 1975 
Q 1069 1734 1069 1313 
Q 1069 891 1326 650 
Q 1584 409 2034 409 
Q 2484 409 2743 651 
Q 3003 894 3003 1313 
Q 3003 1734 2745 1975 
Q 2488 2216 2034 2216 
z
M 1403 2484 
Q 997 2584 770 2862 
Q 544 3141 544 3541 
Q 544 4100 942 4425 
Q 1341 4750 2034 4750 
Q 2731 4750 3128 4425 
Q 3525 4100 3525 3541 
Q 3525 3141 3298 2862 
Q 3072 2584 2669 2484 
Q 3125 2378 3379 2068 
Q 3634 1759 3634 1313 
Q 3634 634 3220 271 
Q 2806 -91 2034 -91 
Q 1263 -91 848 271 
Q 434 634 434 1313 
Q 434 1759 690 2068 
Q 947 2378 1403 2484 
z
M 1172 3481 
Q 1172 3119 1398 2916 
Q 1625 2713 2034 2713 
Q 2441 2713 2670 2916 
Q 2900 3119 2900 3481 
Q 2900 3844 2670 4047 
Q 2441 4250 2034 4250 
Q 1625 4250 1398 4047 
Q 1172 3844 1172 3481 
z
" transform="scale(0.015625)"/>
       </defs>
       <use xlink:href="#DejaVuSans-38"/>
       <use xlink:href="#DejaVuSans-30" x="63.623047"/>
       <use xlink:href="#DejaVuSans-30" x="127.246094"/>
       <use xlink:href="#DejaVuSans-30" x="190.869141"/>
       <use xlink:href="#DejaVuSans-30" x="254.492188"/>
       <use xlink:href="#DejaVuSans-30" x="318.115234"/>
      </g>
     </g>
    </g>
    <g id="ytick_6">
     <g id="line2d_13">
      <g>
       <use xlink:href="#m4710a15c5d" x="126.63125" y="80.182107" style="stroke: #000000; stroke-width: 0.8"/>
      </g>
     </g>
     <g id="text_14">
      <!-- 1000000 -->
      <g transform="translate(30.55625 87.780545) scale(0.2 -0.2)">
       <use xlink:href="#DejaVuSans-31"/>
       <use xlink:href="#DejaVuSans-30" x="63.623047"/>
       <use xlink:href="#DejaVuSans-30" x="127.246094"/>
       <use xlink:href="#DejaVuSans-30" x="190.869141"/>
       <use xlink:href="#DejaVuSans-30" x="254.492188"/>
       <use xlink:href="#DejaVuSans-30" x="318.115234"/>
       <use xlink:href="#DejaVuSans-30" x="381.738281"/>
      </g>
     </g>
    </g>
    <g id="ytick_7">
     <g id="line2d_14">
      <g>
       <use xlink:href="#m4710a15c5d" x="126.63125" y="25.226904" style="stroke: #000000; stroke-width: 0.8"/>
      </g>
     </g>
     <g id="text_15">
      <!-- 1200000 -->
      <g transform="translate(30.55625 32.825341) scale(0.2 -0.2)">
       <use xlink:href="#DejaVuSans-31"/>
       <use xlink:href="#DejaVuSans-32" x="63.623047"/>
       <use xlink:href="#DejaVuSans-30" x="127.246094"/>
       <use xlink:href="#DejaVuSans-30" x="190.869141"/>
       <use xlink:href="#DejaVuSans-30" x="254.492188"/>
       <use xlink:href="#DejaVuSans-30" x="318.115234"/>
       <use xlink:href="#DejaVuSans-30" x="381.738281"/>
      </g>
     </g>
    </g>
    <g id="text_16">
     <!-- Cycles -->
     <g transform="translate(22.396875 221.17875) rotate(-90) scale(0.2 -0.2)">
      <defs>
       <path id="DejaVuSans-43" d="M 4122 4306 
L 4122 3641 
Q 3803 3938 3442 4084 
Q 3081 4231 2675 4231 
Q 1875 4231 1450 3742 
Q 1025 3253 1025 2328 
Q 1025 1406 1450 917 
Q 1875 428 2675 428 
Q 3081 428 3442 575 
Q 3803 722 4122 1019 
L 4122 359 
Q 3791 134 3420 21 
Q 3050 -91 2638 -91 
Q 1578 -91 968 557 
Q 359 1206 359 2328 
Q 359 3453 968 4101 
Q 1578 4750 2638 4750 
Q 3056 4750 3426 4639 
Q 3797 4528 4122 4306 
z
" transform="scale(0.015625)"/>
       <path id="DejaVuSans-63" d="M 3122 3366 
L 3122 2828 
Q 2878 2963 2633 3030 
Q 2388 3097 2138 3097 
Q 1578 3097 1268 2742 
Q 959 2388 959 1747 
Q 959 1106 1268 751 
Q 1578 397 2138 397 
Q 2388 397 2633 464 
Q 2878 531 3122 666 
L 3122 134 
Q 2881 22 2623 -34 
Q 2366 -91 2075 -91 
Q 1284 -91 818 406 
Q 353 903 353 1747 
Q 353 2603 823 3093 
Q 1294 3584 2113 3584 
Q 2378 3584 2631 3529 
Q 2884 3475 3122 3366 
z
" transform="scale(0.015625)"/>
       <path id="DejaVuSans-6c" d="M 603 4863 
L 1178 4863 
L 1178 0 
L 603 0 
L 603 4863 
z
" transform="scale(0.015625)"/>
      </defs>
      <use xlink:href="#DejaVuSans-43"/>
      <use xlink:href="#DejaVuSans-79" x="69.824219"/>
      <use xlink:href="#DejaVuSans-63" x="129.003906"/>
      <use xlink:href="#DejaVuSans-6c" x="183.984375"/>
      <use xlink:href="#DejaVuSans-65" x="211.767578"/>
      <use xlink:href="#DejaVuSans-73" x="273.291016"/>
     </g>
    </g>
   </g>
   <g id="line2d_15">
    <path d="M 172.285795 353.036891 
L 186.779302 353.01326 
L 201.272808 352.786295 
L 215.766315 352.545592 
L 230.259821 352.388969 
L 244.753328 352.337861 
L 259.246834 352.03286 
L 273.740341 351.503091 
L 288.233847 351.336577 
L 302.727354 350.838133 
L 317.22086 350.787575 
L 331.714367 350.568853 
L 346.207873 350.287482 
L 360.70138 350.209995 
L 375.194886 350.098436 
L 389.688393 350.010508 
L 404.181899 349.933021 
L 418.675406 349.601641 
L 433.168912 349.461506 
L 447.662419 349.331811 
L 462.155925 349.214757 
L 476.649432 348.803692 
L 491.142938 348.76907 
L 505.636445 346.297185 
L 520.129951 343.756606 
L 534.623458 343.570857 
L 549.116964 342.653655 
L 563.610471 342.64761 
L 578.103977 342.079373 
L 592.597484 341.710624 
L 607.09099 341.291315 
L 621.584497 340.687358 
L 636.078003 338.941431 
L 650.57151 338.174806 
L 665.065016 337.619758 
L 679.558523 337.331243 
L 694.052029 333.469541 
L 708.545536 333.251369 
L 723.039042 332.782052 
L 737.532549 332.411104 
L 752.026055 331.74175 
L 766.519562 329.885363 
L 781.013068 328.7967 
L 795.506575 328.641177 
L 810.000081 328.287815 
L 824.493588 328.016886 
L 838.987094 327.765741 
L 853.480601 325.65711 
L 867.974107 325.615893 
L 882.467614 325.154819 
L 896.96112 324.939944 
L 911.454627 322.387275 
L 925.948133 321.238711 
L 940.44164 321.164522 
L 954.935146 321.157378 
L 969.428653 320.823799 
L 983.922159 320.658384 
L 998.415666 320.544627 
L 1012.909172 320.331401 
L 1027.402679 320.223139 
L 1041.896185 319.887363 
L 1056.389692 319.479046 
L 1070.883198 317.037935 
L 1085.376705 316.834052 
" clip-path="url(#pedfbe6fb4e)" style="fill: none; stroke: #008000; stroke-width: 1.5; stroke-linecap: square"/>
   </g>
   <g id="line2d_16">
    <path d="M 172.285795 346.203761 
L 186.779302 280.264111 
L 201.272808 263.506072 
L 215.766315 210.795788 
L 230.259821 210.081371 
L 244.753328 188.315263 
L 259.246834 173.525169 
L 273.740341 168.022505 
L 288.233847 161.10914 
L 302.727354 140.190442 
L 317.22086 130.600759 
L 331.714367 92.783885 
L 346.207873 89.438762 
L 360.70138 78.984084 
L 375.194886 78.759317 
L 389.688393 55.683078 
L 404.181899 55.230796 
L 418.675406 54.942831 
L 433.168912 54.691136 
L 447.662419 54.308648 
L 462.155925 54.173458 
L 476.649432 53.634348 
L 491.142938 51.195985 
L 505.636445 50.382648 
L 520.129951 50.131503 
L 534.623458 49.960592 
L 549.116964 49.705051 
L 563.610471 49.623167 
L 578.103977 49.566014 
L 592.597484 49.008219 
L 607.09099 46.644595 
L 621.584497 45.405356 
L 636.078003 44.508487 
L 650.57151 43.913871 
L 665.065016 43.05657 
L 679.558523 42.241035 
L 694.052029 41.834916 
L 708.545536 40.996849 
L 723.039042 40.89738 
L 737.532549 40.215386 
L 752.026055 20.028691 
L 766.519562 6.43717 
L 770.318938 -1 
" clip-path="url(#pedfbe6fb4e)" style="fill: none; stroke: #ff0000; stroke-width: 1.5; stroke-linecap: square"/>
   </g>
   <g id="line2d_17">
    <path d="M 172.285795 345.347559 
L 186.779302 345.312388 
L 201.272808 345.218964 
L 215.766315 345.130486 
L 230.259821 344.655673 
L 244.753328 344.080292 
L 259.246834 343.701651 
L 273.740341 317.458892 
L 288.233847 288.027633 
L 302.727354 270.302931 
L 317.22086 269.441783 
L 331.714367 267.091899 
L 346.207873 254.359877 
L 360.70138 250.23439 
L 375.194886 243.519963 
L 389.688393 239.240602 
L 404.181899 225.474323 
L 418.675406 220.424489 
L 433.168912 217.033753 
L 447.662419 216.885924 
L 462.155925 214.557472 
L 476.649432 213.718856 
L 491.142938 208.128263 
L 505.636445 198.561661 
L 520.129951 197.766459 
L 534.623458 197.144916 
L 549.116964 194.748319 
L 563.610471 192.547363 
L 578.103977 191.644449 
L 592.597484 191.000374 
L 607.09099 190.985537 
L 621.584497 190.140325 
L 636.078003 187.410701 
L 650.57151 187.238691 
L 665.065016 183.980946 
L 679.558523 183.325331 
L 694.052029 180.341813 
L 708.545536 179.154231 
L 723.039042 176.445489 
L 737.532549 175.997604 
L 752.026055 174.651201 
L 766.519562 173.345466 
L 781.013068 173.027825 
L 795.506575 170.21192 
L 810.000081 163.863495 
L 824.493588 161.983477 
L 838.987094 160.786004 
L 853.480601 159.914964 
L 867.974107 158.724634 
L 882.467614 155.022302 
L 896.96112 138.791832 
L 911.454627 122.326154 
L 925.948133 111.667043 
L 940.44164 109.956287 
L 954.935146 106.172621 
L 969.428653 104.462965 
L 983.922159 103.507844 
L 998.415666 97.015985 
L 1012.909172 95.246428 
L 1027.402679 93.712628 
L 1041.896185 87.667006 
L 1056.389692 85.899647 
L 1070.883198 40.450594 
L 1085.376705 36.200359 
" clip-path="url(#pedfbe6fb4e)" style="fill: none; stroke: #00bfbf; stroke-width: 1.5; stroke-linecap: square"/>
   </g>
   <g id="line2d_18">
    <path d="M 172.285795 346.618673 
L 186.779302 346.601087 
L 201.272808 346.236185 
L 215.766315 346.002075 
L 230.259821 345.021125 
L 244.753328 344.930449 
L 259.246834 344.688097 
L 273.740341 307.804912 
L 288.233847 294.811853 
L 302.727354 292.787303 
L 317.22086 284.113723 
L 331.714367 273.213359 
L 346.207873 273.029808 
L 360.70138 268.705384 
L 375.194886 264.655735 
L 389.688393 264.075957 
L 404.181899 263.240089 
L 418.675406 260.957249 
L 433.168912 253.667442 
L 447.662419 241.771838 
L 462.155925 238.528382 
L 476.649432 236.709914 
L 491.142938 236.601103 
L 505.636445 234.316066 
L 520.129951 233.879722 
L 534.623458 232.976808 
L 549.116964 227.364233 
L 563.610471 225.961776 
L 578.103977 225.565549 
L 592.597484 225.286926 
L 607.09099 222.148434 
L 621.584497 214.232137 
L 636.078003 212.16802 
L 650.57151 203.563683 
L 665.065016 202.010649 
L 679.558523 201.734774 
L 694.052029 199.29916 
L 708.545536 195.617161 
L 723.039042 194.824707 
L 737.532549 193.345863 
L 752.026055 192.29347 
L 766.519562 189.920505 
L 781.013068 188.840085 
L 795.506575 188.62576 
L 810.000081 183.431394 
L 824.493588 175.625557 
L 838.987094 174.574814 
L 853.480601 169.428259 
L 867.974107 166.386488 
L 882.467614 165.993559 
L 896.96112 165.494565 
L 911.454627 165.461592 
L 925.948133 159.567647 
L 940.44164 158.99886 
L 954.935146 157.635422 
L 969.428653 155.891693 
L 983.922159 143.212429 
L 998.415666 133.274879 
L 1012.909172 115.572159 
L 1027.402679 110.112909 
L 1041.896185 103.954629 
L 1056.389692 103.159977 
L 1070.883198 43.371463 
L 1085.376705 22.318125 
" clip-path="url(#pedfbe6fb4e)" style="fill: none; stroke: #bf00bf; stroke-width: 1.5; stroke-linecap: square"/>
   </g>
   <g id="line2d_19">
    <path d="M 172.285795 349.703858 
L 186.779302 346.840142 
L 201.272808 346.643403 
L 215.766315 346.245527 
L 230.259821 345.981742 
L 244.753328 344.826034 
L 259.246834 288.049615 
L 273.740341 281.657226 
L 288.233847 272.855051 
L 302.727354 269.937479 
L 317.22086 268.6856 
L 331.714367 266.890213 
L 346.207873 264.944249 
L 360.70138 263.123584 
L 375.194886 262.020633 
L 389.688393 260.562671 
L 404.181899 259.397071 
L 418.675406 258.915664 
L 433.168912 258.489761 
L 447.662419 258.239165 
L 462.155925 256.742735 
L 476.649432 255.63209 
L 491.142938 253.575666 
L 505.636445 253.36299 
L 520.129951 252.959069 
L 534.623458 250.636113 
L 549.116964 249.463369 
L 563.610471 247.82955 
L 578.103977 240.838149 
L 592.597484 233.929731 
L 607.09099 215.680756 
L 621.584497 214.393156 
L 636.078003 213.714459 
L 650.57151 212.420264 
L 665.065016 208.449751 
L 679.558523 206.815383 
L 694.052029 201.40834 
L 708.545536 200.241641 
L 723.039042 199.294763 
L 737.532549 196.926194 
L 752.026055 195.930406 
L 766.519562 192.634193 
L 781.013068 182.907122 
L 795.506575 173.951072 
L 810.000081 173.420754 
L 824.493588 171.591845 
L 838.987094 167.253681 
L 853.480601 165.850675 
L 867.974107 163.822279 
L 882.467614 156.862752 
L 896.96112 146.930148 
L 911.454627 145.979423 
L 925.948133 143.556448 
L 940.44164 142.110027 
L 954.935146 140.342668 
L 969.428653 132.859967 
L 983.922159 130.6733 
L 998.415666 128.213505 
L 1012.909172 122.708093 
L 1027.402679 122.279442 
L 1041.896185 119.439907 
L 1056.389692 117.438988 
L 1070.883198 115.729331 
L 1085.376705 109.331996 
" clip-path="url(#pedfbe6fb4e)" style="fill: none; stroke: #000000; stroke-width: 1.5; stroke-linecap: square"/>
   </g>
   <g id="line2d_20">
    <path d="M 172.285795 354.349221 
L 186.779302 354.100824 
L 201.272808 353.916174 
L 215.766315 353.563362 
L 230.259821 353.434767 
L 244.753328 353.198459 
L 259.246834 352.934674 
L 273.740341 352.464258 
L 288.233847 352.318627 
L 302.727354 352.060337 
L 317.22086 351.591569 
L 331.714367 351.447587 
L 346.207873 350.898584 
L 360.70138 350.532033 
L 375.194886 350.32705 
L 389.688393 349.918183 
L 404.181899 349.70111 
L 418.675406 349.129576 
L 433.168912 349.128477 
L 447.662419 348.73225 
L 462.155925 348.384933 
L 476.649432 347.84857 
L 491.142938 347.53038 
L 505.636445 347.209991 
L 520.129951 346.75661 
L 534.623458 346.323563 
L 549.116964 346.086157 
L 563.610471 345.390424 
L 578.103977 345.373388 
L 592.597484 345.016729 
L 607.09099 344.48751 
L 621.584497 343.806615 
L 636.078003 342.861386 
L 650.57151 342.151364 
L 665.065016 341.380892 
L 679.558523 340.490069 
L 694.052029 339.276658 
L 708.545536 338.003346 
L 723.039042 337.668119 
L 737.532549 336.963593 
L 752.026055 335.923841 
L 766.519562 334.734061 
L 781.013068 334.08504 
L 795.506575 333.055179 
L 810.000081 332.259977 
L 824.493588 331.431253 
L 838.987094 330.522294 
L 853.480601 329.463857 
L 867.974107 328.909908 
L 882.467614 328.207581 
L 896.96112 327.040882 
L 911.454627 326.001679 
L 925.948133 325.069089 
L 940.44164 324.092535 
L 954.935146 323.1539 
L 969.428653 321.822335 
L 983.922159 321.658019 
L 998.415666 320.613871 
L 1012.909172 319.602145 
L 1027.402679 318.964115 
L 1041.896185 318.015589 
L 1056.389692 316.609285 
L 1070.883198 315.900363 
L 1085.376705 315.80529 
" clip-path="url(#pedfbe6fb4e)" style="fill: none; stroke-dasharray: 5.55,2.4; stroke-dashoffset: 0; stroke: #0000ff; stroke-width: 1.5"/>
   </g>
   <g id="line2d_21">
    <path d="M 172.285795 349.545587 
L 186.779302 349.5302 
L 201.272808 349.512064 
L 215.766315 349.510965 
L 230.259821 349.507668 
L 244.753328 349.497226 
L 259.246834 349.497226 
L 273.740341 349.495578 
L 288.233847 349.495028 
L 302.727354 349.487884 
L 317.22086 349.484587 
L 331.714367 349.481839 
L 346.207873 349.48019 
L 360.70138 349.475244 
L 375.194886 349.474695 
L 389.688393 349.471947 
L 404.181899 349.471947 
L 418.675406 349.470848 
L 433.168912 349.46865 
L 447.662419 349.453262 
L 462.155925 349.43183 
L 476.649432 349.425235 
L 491.142938 349.424136 
L 505.636445 349.393911 
L 520.129951 349.390064 
L 534.623458 349.385667 
L 549.116964 349.380172 
L 563.610471 349.380172 
L 578.103977 349.341703 
L 592.597484 349.341154 
L 607.09099 349.319172 
L 621.584497 349.318622 
L 636.078003 349.305433 
L 650.57151 349.303784 
L 665.065016 349.298838 
L 679.558523 349.298289 
L 694.052029 349.29609 
L 708.545536 349.293892 
L 723.039042 349.28455 
L 737.532549 349.280703 
L 752.026055 349.280153 
L 766.519562 349.278505 
L 781.013068 349.275207 
L 795.506575 349.273009 
L 810.000081 349.248829 
L 824.493588 349.231243 
L 838.987094 349.231243 
L 853.480601 349.22245 
L 867.974107 349.213658 
L 882.467614 349.205414 
L 896.96112 349.152657 
L 911.454627 349.140018 
L 925.948133 349.124081 
L 940.44164 349.119135 
L 954.935146 349.102648 
L 969.428653 349.08781 
L 983.922159 349.07572 
L 998.415666 349.071873 
L 1012.909172 349.071873 
L 1027.402679 349.047143 
L 1041.896185 349.044396 
L 1056.389692 349.029008 
L 1070.883198 349.011422 
L 1085.376705 349.005927 
" clip-path="url(#pedfbe6fb4e)" style="fill: none; stroke-dasharray: 5.55,2.4; stroke-dashoffset: 0; stroke: #008000; stroke-width: 1.5"/>
   </g>
   <g id="line2d_22">
    <path d="M 172.285795 350.456744 
L 186.779302 350.455645 
L 201.272808 350.451798 
L 215.766315 350.451249 
L 230.259821 350.450699 
L 244.753328 350.45015 
L 259.246834 350.45015 
L 273.740341 350.449051 
L 288.233847 350.445753 
L 302.727354 350.444105 
L 317.22086 350.443005 
L 331.714367 350.442456 
L 346.207873 350.441906 
L 360.70138 350.441357 
L 375.194886 350.440258 
L 389.688393 350.440258 
L 404.181899 350.439708 
L 418.675406 350.439159 
L 433.168912 350.439159 
L 447.662419 350.438609 
L 462.155925 350.438609 
L 476.649432 350.43806 
L 491.142938 350.43751 
L 505.636445 350.43751 
L 520.129951 350.435861 
L 534.623458 350.434762 
L 549.116964 350.434762 
L 563.610471 350.433663 
L 578.103977 350.431465 
L 592.597484 350.429816 
L 607.09099 350.428717 
L 621.584497 350.427618 
L 636.078003 350.336942 
L 650.57151 350.335843 
L 665.065016 350.330897 
L 679.558523 350.329798 
L 694.052029 350.322654 
L 708.545536 350.321554 
L 723.039042 350.320455 
L 737.532549 350.320455 
L 752.026055 350.320455 
L 766.519562 350.319356 
L 781.013068 350.316059 
L 795.506575 350.316059 
L 810.000081 350.31496 
L 824.493588 350.31496 
L 838.987094 350.313311 
L 853.480601 350.312212 
L 867.974107 350.312212 
L 882.467614 350.311113 
L 896.96112 350.310563 
L 911.454627 350.309464 
L 925.948133 350.308915 
L 940.44164 350.307816 
L 954.935146 350.307266 
L 969.428653 350.306167 
L 983.922159 350.306167 
L 998.415666 350.306167 
L 1012.909172 350.305068 
L 1027.402679 350.305068 
L 1041.896185 350.305068 
L 1056.389692 350.303969 
L 1070.883198 350.300672 
L 1085.376705 350.299572 
" clip-path="url(#pedfbe6fb4e)" style="fill: none; stroke-dasharray: 5.55,2.4; stroke-dashoffset: 0; stroke: #ff0000; stroke-width: 1.5"/>
   </g>
   <g id="line2d_23">
    <path d="M 172.285795 353.727678 
L 186.779302 352.986332 
L 201.272808 352.568673 
L 215.766315 352.495033 
L 230.259821 351.986148 
L 244.753328 351.866345 
L 259.246834 351.838318 
L 273.740341 351.665209 
L 288.233847 351.584975 
L 302.727354 351.486055 
L 317.22086 351.33273 
L 331.714367 351.204135 
L 346.207873 351.042567 
L 360.70138 351.004648 
L 375.194886 350.991458 
L 389.688393 350.98926 
L 404.181899 350.942548 
L 418.675406 350.901332 
L 433.168912 350.757899 
L 447.662419 350.721079 
L 462.155925 350.650736 
L 476.649432 350.647439 
L 491.142938 350.458393 
L 505.636445 350.453997 
L 520.129951 350.447402 
L 534.623458 350.404537 
L 549.116964 350.399591 
L 563.610471 350.224833 
L 578.103977 350.208896 
L 592.597484 350.202302 
L 607.09099 350.131959 
L 621.584497 350.123166 
L 636.078003 350.11877 
L 650.57151 350.092941 
L 665.065016 350.063815 
L 679.558523 350.063265 
L 694.052029 349.964895 
L 708.545536 349.956102 
L 723.039042 349.953904 
L 737.532549 349.936319 
L 752.026055 349.905544 
L 766.519562 349.903345 
L 781.013068 349.898399 
L 795.506575 349.878066 
L 810.000081 349.870922 
L 824.493588 349.863778 
L 838.987094 349.847291 
L 853.480601 349.845642 
L 867.974107 349.819264 
L 882.467614 349.815417 
L 896.96112 349.785192 
L 911.454627 349.739579 
L 925.948133 349.715399 
L 940.44164 349.715399 
L 954.935146 349.68957 
L 969.428653 349.674732 
L 983.922159 349.654948 
L 998.415666 349.612632 
L 1012.909172 349.589002 
L 1027.402679 349.549434 
L 1041.896185 349.489533 
L 1056.389692 349.362037 
L 1070.883198 349.357091 
L 1085.376705 349.324667 
" clip-path="url(#pedfbe6fb4e)" style="fill: none; stroke-dasharray: 5.55,2.4; stroke-dashoffset: 0; stroke: #00bfbf; stroke-width: 1.5"/>
   </g>
   <g id="line2d_24">
    <path d="M 172.285795 349.628569 
L 186.779302 349.623074 
L 201.272808 349.586254 
L 215.766315 349.556578 
L 230.259821 349.528551 
L 244.753328 349.521956 
L 259.246834 349.514263 
L 273.740341 349.507118 
L 288.233847 349.497226 
L 302.727354 349.469199 
L 317.22086 349.463704 
L 331.714367 349.402703 
L 346.207873 349.39446 
L 360.70138 349.368082 
L 375.194886 349.324118 
L 389.688393 349.319172 
L 404.181899 349.316973 
L 418.675406 349.286198 
L 433.168912 349.25927 
L 447.662419 349.248829 
L 462.155925 349.246081 
L 476.649432 349.22355 
L 491.142938 349.132873 
L 505.636445 349.055936 
L 520.129951 349.013071 
L 534.623458 348.900962 
L 549.116964 348.833917 
L 563.610471 348.797097 
L 578.103977 348.763574 
L 592.597484 348.720709 
L 607.09099 348.440438 
L 621.584497 348.346464 
L 636.078003 348.314041 
L 650.57151 348.190941 
L 665.065016 348.140932 
L 679.558523 348.105211 
L 694.052029 348.031022 
L 708.545536 347.965075 
L 723.039042 347.940895 
L 737.532549 347.928255 
L 752.026055 347.850219 
L 766.519562 347.793066 
L 781.013068 347.752399 
L 795.506575 347.649632 
L 810.000081 347.62875 
L 824.493588 347.589731 
L 838.987094 347.563902 
L 853.480601 347.494109 
L 867.974107 347.436956 
L 882.467614 347.335289 
L 896.96112 347.273739 
L 911.454627 347.067657 
L 925.948133 347.010503 
L 940.44164 346.981377 
L 954.935146 346.920377 
L 969.428653 346.895647 
L 983.922159 346.836845 
L 998.415666 346.805521 
L 1012.909172 346.754412 
L 1027.402679 346.723637 
L 1041.896185 346.680772 
L 1056.389692 346.6467 
L 1070.883198 346.610979 
L 1085.376705 346.581303 
" clip-path="url(#pedfbe6fb4e)" style="fill: none; stroke-dasharray: 5.55,2.4; stroke-dashoffset: 0; stroke: #bf00bf; stroke-width: 1.5"/>
   </g>
   <g id="line2d_25">
    <path d="M 172.285795 350.038535 
L 186.779302 349.994571 
L 201.272808 349.944012 
L 215.766315 349.935769 
L 230.259821 349.851138 
L 244.753328 349.806075 
L 259.246834 349.790138 
L 273.740341 349.735182 
L 288.233847 349.728038 
L 302.727354 349.702209 
L 317.22086 349.68902 
L 331.714367 349.658245 
L 346.207873 349.657696 
L 360.70138 349.651651 
L 375.194886 349.625822 
L 389.688393 349.595047 
L 404.181899 349.57856 
L 418.675406 349.574713 
L 433.168912 349.568668 
L 447.662419 349.546686 
L 462.155925 349.499974 
L 476.649432 349.34555 
L 491.142938 349.239487 
L 505.636445 349.197171 
L 520.129951 349.16145 
L 534.623458 349.130675 
L 549.116964 349.082864 
L 563.610471 349.016368 
L 578.103977 348.863043 
L 592.597484 348.852052 
L 607.09099 348.725655 
L 621.584497 348.602006 
L 636.078003 348.568483 
L 650.57151 348.539907 
L 665.065016 348.510231 
L 679.558523 348.442636 
L 694.052029 348.411312 
L 708.545536 348.38933 
L 723.039042 348.260185 
L 737.532549 348.218419 
L 752.026055 348.185995 
L 766.519562 348.142031 
L 781.013068 348.10686 
L 795.506575 348.072788 
L 810.000081 347.933751 
L 824.493588 347.895282 
L 838.987094 347.854615 
L 853.480601 347.852967 
L 867.974107 347.795264 
L 882.467614 347.756795 
L 896.96112 347.647984 
L 911.454627 347.55401 
L 925.948133 347.521037 
L 940.44164 347.462235 
L 954.935146 347.390244 
L 969.428653 347.317703 
L 983.922159 347.253405 
L 998.415666 347.196802 
L 1012.909172 347.166576 
L 1027.402679 347.132504 
L 1041.896185 347.050071 
L 1056.389692 347.0149 
L 1070.883198 346.981927 
L 1085.376705 346.945107 
" clip-path="url(#pedfbe6fb4e)" style="fill: none; stroke-dasharray: 5.55,2.4; stroke-dashoffset: 0; stroke: #000000; stroke-width: 1.5"/>
   </g>
   <g id="line2d_26">
    <path d="M 172.285795 350.268797 
L 186.779302 350.208347 
L 201.272808 350.205049 
L 215.766315 350.169878 
L 230.259821 350.166031 
L 244.753328 350.138004 
L 259.246834 350.134157 
L 273.740341 350.10613 
L 288.233847 350.102833 
L 302.727354 350.075355 
L 317.22086 350.070409 
L 331.714367 350.04458 
L 346.207873 350.041283 
L 360.70138 350.012706 
L 375.194886 350.009409 
L 389.688393 349.981931 
L 404.181899 349.978634 
L 418.675406 349.950057 
L 433.168912 349.94676 
L 447.662419 349.917634 
L 462.155925 349.914886 
L 476.649432 349.887408 
L 491.142938 349.884111 
L 505.636445 349.855534 
L 520.129951 349.852237 
L 534.623458 349.821462 
L 549.116964 349.818165 
L 563.610471 349.793985 
L 578.103977 349.756615 
L 592.597484 349.708804 
L 607.09099 349.704957 
L 621.584497 349.67693 
L 636.078003 349.671984 
L 650.57151 349.64011 
L 665.065016 349.589551 
L 679.558523 349.585704 
L 694.052029 349.553281 
L 708.545536 349.549983 
L 723.039042 349.509866 
L 737.532549 349.498326 
L 752.026055 349.4681 
L 766.519562 349.464253 
L 781.013068 349.434028 
L 795.506575 349.429632 
L 810.000081 349.399406 
L 824.493588 349.39446 
L 838.987094 349.35819 
L 853.480601 349.332361 
L 867.974107 349.327964 
L 882.467614 349.300487 
L 896.96112 349.297189 
L 911.454627 349.268613 
L 925.948133 349.264766 
L 940.44164 349.220802 
L 954.935146 349.209261 
L 969.428653 349.17354 
L 983.922159 349.169693 
L 998.415666 349.142765 
L 1012.909172 349.138919 
L 1027.402679 349.11309 
L 1041.896185 349.109243 
L 1056.389692 349.07517 
L 1070.883198 349.043846 
L 1085.376705 349.03945 
" clip-path="url(#pedfbe6fb4e)" style="fill: none; stroke-dasharray: 9.6,2.4,1.5,2.4; stroke-dashoffset: 0; stroke: #0000ff; stroke-width: 1.5"/>
   </g>
   <g id="patch_3">
    <path d="M 126.63125 354.958125 
L 126.63125 22.318125 
" style="fill: none; stroke: #000000; stroke-width: 0.8; stroke-linejoin: miter; stroke-linecap: square"/>
   </g>
   <g id="patch_4">
    <path d="M 1131.03125 354.958125 
L 1131.03125 22.318125 
" style="fill: none; stroke: #000000; stroke-width: 0.8; stroke-linejoin: miter; stroke-linecap: square"/>
   </g>
   <g id="patch_5">
    <path d="M 126.63125 354.958125 
L 1131.03125 354.958125 
" style="fill: none; stroke: #000000; stroke-width: 0.8; stroke-linejoin: miter; stroke-linecap: square"/>
   </g>
   <g id="patch_6">
    <path d="M 126.63125 22.318125 
L 1131.03125 22.318125 
" style="fill: none; stroke: #000000; stroke-width: 0.8; stroke-linejoin: miter; stroke-linecap: square"/>
   </g>
   <g id="text_17">
    <!-- Scheduling time, all -->
    <g transform="translate(569.385312 16.318125) scale(0.12 -0.12)">
     <defs>
      <path id="DejaVuSans-53" d="M 3425 4513 
L 3425 3897 
Q 3066 4069 2747 4153 
Q 2428 4238 2131 4238 
Q 1616 4238 1336 4038 
Q 1056 3838 1056 3469 
Q 1056 3159 1242 3001 
Q 1428 2844 1947 2747 
L 2328 2669 
Q 3034 2534 3370 2195 
Q 3706 1856 3706 1288 
Q 3706 609 3251 259 
Q 2797 -91 1919 -91 
Q 1588 -91 1214 -16 
Q 841 59 441 206 
L 441 856 
Q 825 641 1194 531 
Q 1563 422 1919 422 
Q 2459 422 2753 634 
Q 3047 847 3047 1241 
Q 3047 1584 2836 1778 
Q 2625 1972 2144 2069 
L 1759 2144 
Q 1053 2284 737 2584 
Q 422 2884 422 3419 
Q 422 4038 858 4394 
Q 1294 4750 2059 4750 
Q 2388 4750 2728 4690 
Q 3069 4631 3425 4513 
z
" transform="scale(0.015625)"/>
      <path id="DejaVuSans-75" d="M 544 1381 
L 544 3500 
L 1119 3500 
L 1119 1403 
Q 1119 906 1312 657 
Q 1506 409 1894 409 
Q 2359 409 2629 706 
Q 2900 1003 2900 1516 
L 2900 3500 
L 3475 3500 
L 3475 0 
L 2900 0 
L 2900 538 
Q 2691 219 2414 64 
Q 2138 -91 1772 -91 
Q 1169 -91 856 284 
Q 544 659 544 1381 
z
M 1991 3584 
L 1991 3584 
z
" transform="scale(0.015625)"/>
      <path id="DejaVuSans-67" d="M 2906 1791 
Q 2906 2416 2648 2759 
Q 2391 3103 1925 3103 
Q 1463 3103 1205 2759 
Q 947 2416 947 1791 
Q 947 1169 1205 825 
Q 1463 481 1925 481 
Q 2391 481 2648 825 
Q 2906 1169 2906 1791 
z
M 3481 434 
Q 3481 -459 3084 -895 
Q 2688 -1331 1869 -1331 
Q 1566 -1331 1297 -1286 
Q 1028 -1241 775 -1147 
L 775 -588 
Q 1028 -725 1275 -790 
Q 1522 -856 1778 -856 
Q 2344 -856 2625 -561 
Q 2906 -266 2906 331 
L 2906 616 
Q 2728 306 2450 153 
Q 2172 0 1784 0 
Q 1141 0 747 490 
Q 353 981 353 1791 
Q 353 2603 747 3093 
Q 1141 3584 1784 3584 
Q 2172 3584 2450 3431 
Q 2728 3278 2906 2969 
L 2906 3500 
L 3481 3500 
L 3481 434 
z
" transform="scale(0.015625)"/>
      <path id="DejaVuSans-2c" d="M 750 794 
L 1409 794 
L 1409 256 
L 897 -744 
L 494 -744 
L 750 256 
L 750 794 
z
" transform="scale(0.015625)"/>
     </defs>
     <use xlink:href="#DejaVuSans-53"/>
     <use xlink:href="#DejaVuSans-63" x="63.476562"/>
     <use xlink:href="#DejaVuSans-68" x="118.457031"/>
     <use xlink:href="#DejaVuSans-65" x="181.835938"/>
     <use xlink:href="#DejaVuSans-64" x="243.359375"/>
     <use xlink:href="#DejaVuSans-75" x="306.835938"/>
     <use xlink:href="#DejaVuSans-6c" x="370.214844"/>
     <use xlink:href="#DejaVuSans-69" x="397.998047"/>
     <use xlink:href="#DejaVuSans-6e" x="425.78125"/>
     <use xlink:href="#DejaVuSans-67" x="489.160156"/>
     <use xlink:href="#DejaVuSans-20" x="552.636719"/>
     <use xlink:href="#DejaVuSans-74" x="584.423828"/>
     <use xlink:href="#DejaVuSans-69" x="623.632812"/>
     <use xlink:href="#DejaVuSans-6d" x="651.416016"/>
     <use xlink:href="#DejaVuSans-65" x="748.828125"/>
     <use xlink:href="#DejaVuSans-2c" x="810.351562"/>
     <use xlink:href="#DejaVuSans-20" x="842.138672"/>
     <use xlink:href="#DejaVuSans-61" x="873.925781"/>
     <use xlink:href="#DejaVuSans-6c" x="935.205078"/>
     <use xlink:href="#DejaVuSans-6c" x="962.988281"/>
    </g>
   </g>
   <g id="legend_1">
    <g id="patch_7">
     <path d="M 136.43125 284.783125 
L 411.883438 284.783125 
Q 414.683438 284.783125 414.683438 281.983125 
L 414.683438 32.118125 
Q 414.683438 29.318125 411.883438 29.318125 
L 136.43125 29.318125 
Q 133.63125 29.318125 133.63125 32.118125 
L 133.63125 281.983125 
Q 133.63125 284.783125 136.43125 284.783125 
z
" style="fill: #ffffff; opacity: 0.8; stroke: #cccccc; stroke-linejoin: miter"/>
    </g>
    <g id="line2d_27">
     <path d="M 139.23125 40.655938 
L 153.23125 40.655938 
L 167.23125 40.655938 
" style="fill: none; stroke: #008000; stroke-width: 1.5; stroke-linecap: square"/>
    </g>
    <g id="text_18">
     <!-- EIGEN_SIMPLE -->
     <g transform="translate(178.43125 45.555938) scale(0.14 -0.14)">
      <defs>
       <path id="DejaVuSans-45" d="M 628 4666 
L 3578 4666 
L 3578 4134 
L 1259 4134 
L 1259 2753 
L 3481 2753 
L 3481 2222 
L 1259 2222 
L 1259 531 
L 3634 531 
L 3634 0 
L 628 0 
L 628 4666 
z
" transform="scale(0.015625)"/>
       <path id="DejaVuSans-47" d="M 3809 666 
L 3809 1919 
L 2778 1919 
L 2778 2438 
L 4434 2438 
L 4434 434 
Q 4069 175 3628 42 
Q 3188 -91 2688 -91 
Q 1594 -91 976 548 
Q 359 1188 359 2328 
Q 359 3472 976 4111 
Q 1594 4750 2688 4750 
Q 3144 4750 3555 4637 
Q 3966 4525 4313 4306 
L 4313 3634 
Q 3963 3931 3569 4081 
Q 3175 4231 2741 4231 
Q 1884 4231 1454 3753 
Q 1025 3275 1025 2328 
Q 1025 1384 1454 906 
Q 1884 428 2741 428 
Q 3075 428 3337 486 
Q 3600 544 3809 666 
z
" transform="scale(0.015625)"/>
       <path id="DejaVuSans-4e" d="M 628 4666 
L 1478 4666 
L 3547 763 
L 3547 4666 
L 4159 4666 
L 4159 0 
L 3309 0 
L 1241 3903 
L 1241 0 
L 628 0 
L 628 4666 
z
" transform="scale(0.015625)"/>
       <path id="DejaVuSans-5f" d="M 3263 -1063 
L 3263 -1509 
L -63 -1509 
L -63 -1063 
L 3263 -1063 
z
" transform="scale(0.015625)"/>
       <path id="DejaVuSans-4d" d="M 628 4666 
L 1569 4666 
L 2759 1491 
L 3956 4666 
L 4897 4666 
L 4897 0 
L 4281 0 
L 4281 4097 
L 3078 897 
L 2444 897 
L 1241 4097 
L 1241 0 
L 628 0 
L 628 4666 
z
" transform="scale(0.015625)"/>
       <path id="DejaVuSans-50" d="M 1259 4147 
L 1259 2394 
L 2053 2394 
Q 2494 2394 2734 2622 
Q 2975 2850 2975 3272 
Q 2975 3691 2734 3919 
Q 2494 4147 2053 4147 
L 1259 4147 
z
M 628 4666 
L 2053 4666 
Q 2838 4666 3239 4311 
Q 3641 3956 3641 3272 
Q 3641 2581 3239 2228 
Q 2838 1875 2053 1875 
L 1259 1875 
L 1259 0 
L 628 0 
L 628 4666 
z
" transform="scale(0.015625)"/>
       <path id="DejaVuSans-4c" d="M 628 4666 
L 1259 4666 
L 1259 531 
L 3531 531 
L 3531 0 
L 628 0 
L 628 4666 
z
" transform="scale(0.015625)"/>
      </defs>
      <use xlink:href="#DejaVuSans-45"/>
      <use xlink:href="#DejaVuSans-49" x="63.183594"/>
      <use xlink:href="#DejaVuSans-47" x="92.675781"/>
      <use xlink:href="#DejaVuSans-45" x="170.166016"/>
      <use xlink:href="#DejaVuSans-4e" x="233.349609"/>
      <use xlink:href="#DejaVuSans-5f" x="308.154297"/>
      <use xlink:href="#DejaVuSans-53" x="358.154297"/>
      <use xlink:href="#DejaVuSans-49" x="421.630859"/>
      <use xlink:href="#DejaVuSans-4d" x="451.123047"/>
      <use xlink:href="#DejaVuSans-50" x="537.402344"/>
      <use xlink:href="#DejaVuSans-4c" x="597.705078"/>
      <use xlink:href="#DejaVuSans-45" x="653.417969"/>
     </g>
    </g>
    <g id="line2d_28">
     <path d="M 139.23125 61.594688 
L 153.23125 61.594688 
L 167.23125 61.594688 
" style="fill: none; stroke: #ff0000; stroke-width: 1.5; stroke-linecap: square"/>
    </g>
    <g id="text_19">
     <!-- TBB_AFFINITY -->
     <g transform="translate(178.43125 66.494688) scale(0.14 -0.14)">
      <defs>
       <path id="DejaVuSans-54" d="M -19 4666 
L 3928 4666 
L 3928 4134 
L 2272 4134 
L 2272 0 
L 1638 0 
L 1638 4134 
L -19 4134 
L -19 4666 
z
" transform="scale(0.015625)"/>
       <path id="DejaVuSans-42" d="M 1259 2228 
L 1259 519 
L 2272 519 
Q 2781 519 3026 730 
Q 3272 941 3272 1375 
Q 3272 1813 3026 2020 
Q 2781 2228 2272 2228 
L 1259 2228 
z
M 1259 4147 
L 1259 2741 
L 2194 2741 
Q 2656 2741 2882 2914 
Q 3109 3088 3109 3444 
Q 3109 3797 2882 3972 
Q 2656 4147 2194 4147 
L 1259 4147 
z
M 628 4666 
L 2241 4666 
Q 2963 4666 3353 4366 
Q 3744 4066 3744 3513 
Q 3744 3084 3544 2831 
Q 3344 2578 2956 2516 
Q 3422 2416 3680 2098 
Q 3938 1781 3938 1306 
Q 3938 681 3513 340 
Q 3088 0 2303 0 
L 628 0 
L 628 4666 
z
" transform="scale(0.015625)"/>
       <path id="DejaVuSans-41" d="M 2188 4044 
L 1331 1722 
L 3047 1722 
L 2188 4044 
z
M 1831 4666 
L 2547 4666 
L 4325 0 
L 3669 0 
L 3244 1197 
L 1141 1197 
L 716 0 
L 50 0 
L 1831 4666 
z
" transform="scale(0.015625)"/>
       <path id="DejaVuSans-46" d="M 628 4666 
L 3309 4666 
L 3309 4134 
L 1259 4134 
L 1259 2759 
L 3109 2759 
L 3109 2228 
L 1259 2228 
L 1259 0 
L 628 0 
L 628 4666 
z
" transform="scale(0.015625)"/>
       <path id="DejaVuSans-59" d="M -13 4666 
L 666 4666 
L 1959 2747 
L 3244 4666 
L 3922 4666 
L 2272 2222 
L 2272 0 
L 1638 0 
L 1638 2222 
L -13 4666 
z
" transform="scale(0.015625)"/>
      </defs>
      <use xlink:href="#DejaVuSans-54"/>
      <use xlink:href="#DejaVuSans-42" x="61.083984"/>
      <use xlink:href="#DejaVuSans-42" x="129.6875"/>
      <use xlink:href="#DejaVuSans-5f" x="198.291016"/>
      <use xlink:href="#DejaVuSans-41" x="248.291016"/>
      <use xlink:href="#DejaVuSans-46" x="316.699219"/>
      <use xlink:href="#DejaVuSans-46" x="374.21875"/>
      <use xlink:href="#DejaVuSans-49" x="431.738281"/>
      <use xlink:href="#DejaVuSans-4e" x="461.230469"/>
      <use xlink:href="#DejaVuSans-49" x="536.035156"/>
      <use xlink:href="#DejaVuSans-54" x="565.527344"/>
      <use xlink:href="#DejaVuSans-59" x="626.611328"/>
     </g>
    </g>
    <g id="line2d_29">
     <path d="M 139.23125 82.533438 
L 153.23125 82.533438 
L 167.23125 82.533438 
" style="fill: none; stroke: #00bfbf; stroke-width: 1.5; stroke-linecap: square"/>
    </g>
    <g id="text_20">
     <!-- TBB_CONST_AFFINITY -->
     <g transform="translate(178.43125 87.433438) scale(0.14 -0.14)">
      <defs>
       <path id="DejaVuSans-4f" d="M 2522 4238 
Q 1834 4238 1429 3725 
Q 1025 3213 1025 2328 
Q 1025 1447 1429 934 
Q 1834 422 2522 422 
Q 3209 422 3611 934 
Q 4013 1447 4013 2328 
Q 4013 3213 3611 3725 
Q 3209 4238 2522 4238 
z
M 2522 4750 
Q 3503 4750 4090 4092 
Q 4678 3434 4678 2328 
Q 4678 1225 4090 567 
Q 3503 -91 2522 -91 
Q 1538 -91 948 565 
Q 359 1222 359 2328 
Q 359 3434 948 4092 
Q 1538 4750 2522 4750 
z
" transform="scale(0.015625)"/>
      </defs>
      <use xlink:href="#DejaVuSans-54"/>
      <use xlink:href="#DejaVuSans-42" x="61.083984"/>
      <use xlink:href="#DejaVuSans-42" x="129.6875"/>
      <use xlink:href="#DejaVuSans-5f" x="198.291016"/>
      <use xlink:href="#DejaVuSans-43" x="248.291016"/>
      <use xlink:href="#DejaVuSans-4f" x="318.115234"/>
      <use xlink:href="#DejaVuSans-4e" x="396.826172"/>
      <use xlink:href="#DejaVuSans-53" x="471.630859"/>
      <use xlink:href="#DejaVuSans-54" x="535.107422"/>
      <use xlink:href="#DejaVuSans-5f" x="596.191406"/>
      <use xlink:href="#DejaVuSans-41" x="646.191406"/>
      <use xlink:href="#DejaVuSans-46" x="714.599609"/>
      <use xlink:href="#DejaVuSans-46" x="772.119141"/>
      <use xlink:href="#DejaVuSans-49" x="829.638672"/>
      <use xlink:href="#DejaVuSans-4e" x="859.130859"/>
      <use xlink:href="#DejaVuSans-49" x="933.935547"/>
      <use xlink:href="#DejaVuSans-54" x="963.427734"/>
      <use xlink:href="#DejaVuSans-59" x="1024.511719"/>
     </g>
    </g>
    <g id="line2d_30">
     <path d="M 139.23125 103.472187 
L 153.23125 103.472187 
L 167.23125 103.472187 
" style="fill: none; stroke: #bf00bf; stroke-width: 1.5; stroke-linecap: square"/>
    </g>
    <g id="text_21">
     <!-- TBB_SIMPLE -->
     <g transform="translate(178.43125 108.372187) scale(0.14 -0.14)">
      <use xlink:href="#DejaVuSans-54"/>
      <use xlink:href="#DejaVuSans-42" x="61.083984"/>
      <use xlink:href="#DejaVuSans-42" x="129.6875"/>
      <use xlink:href="#DejaVuSans-5f" x="198.291016"/>
      <use xlink:href="#DejaVuSans-53" x="248.291016"/>
      <use xlink:href="#DejaVuSans-49" x="311.767578"/>
      <use xlink:href="#DejaVuSans-4d" x="341.259766"/>
      <use xlink:href="#DejaVuSans-50" x="427.539062"/>
      <use xlink:href="#DejaVuSans-4c" x="487.841797"/>
      <use xlink:href="#DejaVuSans-45" x="543.554688"/>
     </g>
    </g>
    <g id="line2d_31">
     <path d="M 139.23125 124.410938 
L 153.23125 124.410938 
L 167.23125 124.410938 
" style="fill: none; stroke: #000000; stroke-width: 1.5; stroke-linecap: square"/>
    </g>
    <g id="text_22">
     <!-- TBB_AUTO -->
     <g transform="translate(178.43125 129.310938) scale(0.14 -0.14)">
      <defs>
       <path id="DejaVuSans-55" d="M 556 4666 
L 1191 4666 
L 1191 1831 
Q 1191 1081 1462 751 
Q 1734 422 2344 422 
Q 2950 422 3222 751 
Q 3494 1081 3494 1831 
L 3494 4666 
L 4128 4666 
L 4128 1753 
Q 4128 841 3676 375 
Q 3225 -91 2344 -91 
Q 1459 -91 1007 375 
Q 556 841 556 1753 
L 556 4666 
z
" transform="scale(0.015625)"/>
      </defs>
      <use xlink:href="#DejaVuSans-54"/>
      <use xlink:href="#DejaVuSans-42" x="61.083984"/>
      <use xlink:href="#DejaVuSans-42" x="129.6875"/>
      <use xlink:href="#DejaVuSans-5f" x="198.291016"/>
      <use xlink:href="#DejaVuSans-41" x="248.291016"/>
      <use xlink:href="#DejaVuSans-55" x="316.699219"/>
      <use xlink:href="#DejaVuSans-54" x="389.892578"/>
      <use xlink:href="#DejaVuSans-4f" x="450.976562"/>
     </g>
    </g>
    <g id="line2d_32">
     <path d="M 139.23125 145.349688 
L 153.23125 145.349688 
L 167.23125 145.349688 
" style="fill: none; stroke-dasharray: 5.55,2.4; stroke-dashoffset: 0; stroke: #0000ff; stroke-width: 1.5"/>
    </g>
    <g id="text_23">
     <!-- EIGEN_STATIC -->
     <g transform="translate(178.43125 150.249688) scale(0.14 -0.14)">
      <use xlink:href="#DejaVuSans-45"/>
      <use xlink:href="#DejaVuSans-49" x="63.183594"/>
      <use xlink:href="#DejaVuSans-47" x="92.675781"/>
      <use xlink:href="#DejaVuSans-45" x="170.166016"/>
      <use xlink:href="#DejaVuSans-4e" x="233.349609"/>
      <use xlink:href="#DejaVuSans-5f" x="308.154297"/>
      <use xlink:href="#DejaVuSans-53" x="358.154297"/>
      <use xlink:href="#DejaVuSans-54" x="421.630859"/>
      <use xlink:href="#DejaVuSans-41" x="474.964844"/>
      <use xlink:href="#DejaVuSans-54" x="535.623047"/>
      <use xlink:href="#DejaVuSans-49" x="596.707031"/>
      <use xlink:href="#DejaVuSans-43" x="626.199219"/>
     </g>
    </g>
    <g id="line2d_33">
     <path d="M 139.23125 166.288438 
L 153.23125 166.288438 
L 167.23125 166.288438 
" style="fill: none; stroke-dasharray: 5.55,2.4; stroke-dashoffset: 0; stroke: #008000; stroke-width: 1.5"/>
    </g>
    <g id="text_24">
     <!-- OMP_DYNAMIC_NONMONOTONIC -->
     <g transform="translate(178.43125 171.188438) scale(0.14 -0.14)">
      <defs>
       <path id="DejaVuSans-44" d="M 1259 4147 
L 1259 519 
L 2022 519 
Q 2988 519 3436 956 
Q 3884 1394 3884 2338 
Q 3884 3275 3436 3711 
Q 2988 4147 2022 4147 
L 1259 4147 
z
M 628 4666 
L 1925 4666 
Q 3281 4666 3915 4102 
Q 4550 3538 4550 2338 
Q 4550 1131 3912 565 
Q 3275 0 1925 0 
L 628 0 
L 628 4666 
z
" transform="scale(0.015625)"/>
      </defs>
      <use xlink:href="#DejaVuSans-4f"/>
      <use xlink:href="#DejaVuSans-4d" x="78.710938"/>
      <use xlink:href="#DejaVuSans-50" x="164.990234"/>
      <use xlink:href="#DejaVuSans-5f" x="225.292969"/>
      <use xlink:href="#DejaVuSans-44" x="275.292969"/>
      <use xlink:href="#DejaVuSans-59" x="346.794922"/>
      <use xlink:href="#DejaVuSans-4e" x="407.878906"/>
      <use xlink:href="#DejaVuSans-41" x="482.683594"/>
      <use xlink:href="#DejaVuSans-4d" x="551.091797"/>
      <use xlink:href="#DejaVuSans-49" x="637.371094"/>
      <use xlink:href="#DejaVuSans-43" x="666.863281"/>
      <use xlink:href="#DejaVuSans-5f" x="736.6875"/>
      <use xlink:href="#DejaVuSans-4e" x="786.6875"/>
      <use xlink:href="#DejaVuSans-4f" x="861.492188"/>
      <use xlink:href="#DejaVuSans-4e" x="940.203125"/>
      <use xlink:href="#DejaVuSans-4d" x="1015.007812"/>
      <use xlink:href="#DejaVuSans-4f" x="1101.287109"/>
      <use xlink:href="#DejaVuSans-4e" x="1179.998047"/>
      <use xlink:href="#DejaVuSans-4f" x="1254.802734"/>
      <use xlink:href="#DejaVuSans-54" x="1333.513672"/>
      <use xlink:href="#DejaVuSans-4f" x="1394.597656"/>
      <use xlink:href="#DejaVuSans-4e" x="1473.308594"/>
      <use xlink:href="#DejaVuSans-49" x="1548.113281"/>
      <use xlink:href="#DejaVuSans-43" x="1577.605469"/>
     </g>
    </g>
    <g id="line2d_34">
     <path d="M 139.23125 187.227188 
L 153.23125 187.227188 
L 167.23125 187.227188 
" style="fill: none; stroke-dasharray: 5.55,2.4; stroke-dashoffset: 0; stroke: #ff0000; stroke-width: 1.5"/>
    </g>
    <g id="text_25">
     <!-- OMP_STATIC -->
     <g transform="translate(178.43125 192.127188) scale(0.14 -0.14)">
      <use xlink:href="#DejaVuSans-4f"/>
      <use xlink:href="#DejaVuSans-4d" x="78.710938"/>
      <use xlink:href="#DejaVuSans-50" x="164.990234"/>
      <use xlink:href="#DejaVuSans-5f" x="225.292969"/>
      <use xlink:href="#DejaVuSans-53" x="275.292969"/>
      <use xlink:href="#DejaVuSans-54" x="338.769531"/>
      <use xlink:href="#DejaVuSans-41" x="392.103516"/>
      <use xlink:href="#DejaVuSans-54" x="452.761719"/>
      <use xlink:href="#DejaVuSans-49" x="513.845703"/>
      <use xlink:href="#DejaVuSans-43" x="543.337891"/>
     </g>
    </g>
    <g id="line2d_35">
     <path d="M 139.23125 208.165938 
L 153.23125 208.165938 
L 167.23125 208.165938 
" style="fill: none; stroke-dasharray: 5.55,2.4; stroke-dashoffset: 0; stroke: #00bfbf; stroke-width: 1.5"/>
    </g>
    <g id="text_26">
     <!-- EIGEN_TIMESPAN -->
     <g transform="translate(178.43125 213.065938) scale(0.14 -0.14)">
      <use xlink:href="#DejaVuSans-45"/>
      <use xlink:href="#DejaVuSans-49" x="63.183594"/>
      <use xlink:href="#DejaVuSans-47" x="92.675781"/>
      <use xlink:href="#DejaVuSans-45" x="170.166016"/>
      <use xlink:href="#DejaVuSans-4e" x="233.349609"/>
      <use xlink:href="#DejaVuSans-5f" x="308.154297"/>
      <use xlink:href="#DejaVuSans-54" x="358.154297"/>
      <use xlink:href="#DejaVuSans-49" x="419.238281"/>
      <use xlink:href="#DejaVuSans-4d" x="448.730469"/>
      <use xlink:href="#DejaVuSans-45" x="535.009766"/>
      <use xlink:href="#DejaVuSans-53" x="598.193359"/>
      <use xlink:href="#DejaVuSans-50" x="661.669922"/>
      <use xlink:href="#DejaVuSans-41" x="715.597656"/>
      <use xlink:href="#DejaVuSans-4e" x="784.005859"/>
     </g>
    </g>
    <g id="line2d_36">
     <path d="M 139.23125 229.104688 
L 153.23125 229.104688 
L 167.23125 229.104688 
" style="fill: none; stroke-dasharray: 5.55,2.4; stroke-dashoffset: 0; stroke: #bf00bf; stroke-width: 1.5"/>
    </g>
    <g id="text_27">
     <!-- OMP_GUIDED_MONOTONIC -->
     <g transform="translate(178.43125 234.004688) scale(0.14 -0.14)">
      <use xlink:href="#DejaVuSans-4f"/>
      <use xlink:href="#DejaVuSans-4d" x="78.710938"/>
      <use xlink:href="#DejaVuSans-50" x="164.990234"/>
      <use xlink:href="#DejaVuSans-5f" x="225.292969"/>
      <use xlink:href="#DejaVuSans-47" x="275.292969"/>
      <use xlink:href="#DejaVuSans-55" x="352.783203"/>
      <use xlink:href="#DejaVuSans-49" x="425.976562"/>
      <use xlink:href="#DejaVuSans-44" x="455.46875"/>
      <use xlink:href="#DejaVuSans-45" x="532.470703"/>
      <use xlink:href="#DejaVuSans-44" x="595.654297"/>
      <use xlink:href="#DejaVuSans-5f" x="672.65625"/>
      <use xlink:href="#DejaVuSans-4d" x="722.65625"/>
      <use xlink:href="#DejaVuSans-4f" x="808.935547"/>
      <use xlink:href="#DejaVuSans-4e" x="887.646484"/>
      <use xlink:href="#DejaVuSans-4f" x="962.451172"/>
      <use xlink:href="#DejaVuSans-54" x="1041.162109"/>
      <use xlink:href="#DejaVuSans-4f" x="1102.246094"/>
      <use xlink:href="#DejaVuSans-4e" x="1180.957031"/>
      <use xlink:href="#DejaVuSans-49" x="1255.761719"/>
      <use xlink:href="#DejaVuSans-43" x="1285.253906"/>
     </g>
    </g>
    <g id="line2d_37">
     <path d="M 139.23125 250.043438 
L 153.23125 250.043438 
L 167.23125 250.043438 
" style="fill: none; stroke-dasharray: 5.55,2.4; stroke-dashoffset: 0; stroke: #000000; stroke-width: 1.5"/>
    </g>
    <g id="text_28">
     <!-- OMP_GUIDED_NONMONOTONIC -->
     <g transform="translate(178.43125 254.943438) scale(0.14 -0.14)">
      <use xlink:href="#DejaVuSans-4f"/>
      <use xlink:href="#DejaVuSans-4d" x="78.710938"/>
      <use xlink:href="#DejaVuSans-50" x="164.990234"/>
      <use xlink:href="#DejaVuSans-5f" x="225.292969"/>
      <use xlink:href="#DejaVuSans-47" x="275.292969"/>
      <use xlink:href="#DejaVuSans-55" x="352.783203"/>
      <use xlink:href="#DejaVuSans-49" x="425.976562"/>
      <use xlink:href="#DejaVuSans-44" x="455.46875"/>
      <use xlink:href="#DejaVuSans-45" x="532.470703"/>
      <use xlink:href="#DejaVuSans-44" x="595.654297"/>
      <use xlink:href="#DejaVuSans-5f" x="672.65625"/>
      <use xlink:href="#DejaVuSans-4e" x="722.65625"/>
      <use xlink:href="#DejaVuSans-4f" x="797.460938"/>
      <use xlink:href="#DejaVuSans-4e" x="876.171875"/>
      <use xlink:href="#DejaVuSans-4d" x="950.976562"/>
      <use xlink:href="#DejaVuSans-4f" x="1037.255859"/>
      <use xlink:href="#DejaVuSans-4e" x="1115.966797"/>
      <use xlink:href="#DejaVuSans-4f" x="1190.771484"/>
      <use xlink:href="#DejaVuSans-54" x="1269.482422"/>
      <use xlink:href="#DejaVuSans-4f" x="1330.566406"/>
      <use xlink:href="#DejaVuSans-4e" x="1409.277344"/>
      <use xlink:href="#DejaVuSans-49" x="1484.082031"/>
      <use xlink:href="#DejaVuSans-43" x="1513.574219"/>
     </g>
    </g>
    <g id="line2d_38">
     <path d="M 139.23125 270.982188 
L 153.23125 270.982188 
L 167.23125 270.982188 
" style="fill: none; stroke-dasharray: 9.6,2.4,1.5,2.4; stroke-dashoffset: 0; stroke: #0000ff; stroke-width: 1.5"/>
    </g>
    <g id="text_29">
     <!-- OMP_DYNAMIC_MONOTONIC -->
     <g transform="translate(178.43125 275.882187) scale(0.14 -0.14)">
      <use xlink:href="#DejaVuSans-4f"/>
      <use xlink:href="#DejaVuSans-4d" x="78.710938"/>
      <use xlink:href="#DejaVuSans-50" x="164.990234"/>
      <use xlink:href="#DejaVuSans-5f" x="225.292969"/>
      <use xlink:href="#DejaVuSans-44" x="275.292969"/>
      <use xlink:href="#DejaVuSans-59" x="346.794922"/>
      <use xlink:href="#DejaVuSans-4e" x="407.878906"/>
      <use xlink:href="#DejaVuSans-41" x="482.683594"/>
      <use xlink:href="#DejaVuSans-4d" x="551.091797"/>
      <use xlink:href="#DejaVuSans-49" x="637.371094"/>
      <use xlink:href="#DejaVuSans-43" x="666.863281"/>
      <use xlink:href="#DejaVuSans-5f" x="736.6875"/>
      <use xlink:href="#DejaVuSans-4d" x="786.6875"/>
      <use xlink:href="#DejaVuSans-4f" x="872.966797"/>
      <use xlink:href="#DejaVuSans-4e" x="951.677734"/>
      <use xlink:href="#DejaVuSans-4f" x="1026.482422"/>
      <use xlink:href="#DejaVuSans-54" x="1105.193359"/>
      <use xlink:href="#DejaVuSans-4f" x="1166.277344"/>
      <use xlink:href="#DejaVuSans-4e" x="1244.988281"/>
      <use xlink:href="#DejaVuSans-49" x="1319.792969"/>
      <use xlink:href="#DejaVuSans-43" x="1349.285156"/>
     </g>
    </g>
   </g>
  </g>
 </g>
 <defs>
  <clipPath id="pedfbe6fb4e">
   <rect x="126.63125" y="22.318125" width="1004.4" height="332.64"/>
  </clipPath>
 </defs>
</svg>
